<?xml version="1.0" standalone="no"?><!DOCTYPE svg PUBLIC "-//W3C//DTD SVG 1.1//EN" "http://www.w3.org/Graphics/SVG/1.1/DTD/svg11.dtd"><svg class="icon" height="512" viewBox="0 0 1024 1024" version="1.1" xmlns="http://www.w3.org/2000/svg"><path d="M512.002047 7.9347c278.387848 0 504.060183 225.677451 504.060183 504.0653 0 278.383755-225.672335 504.0653-504.060183 504.0653-278.388872 0-504.0653-225.681545-504.0653-504.0653 0-278.387848 225.676428-504.0653 504.0653-504.0653z m-6.067171 678.823137c-33.355622 6.470352-61.151633 20.333054-64.171403 21.865963-52.187489 23.849127-52.614206 37.619731-84.6293 40.928073-24.207283 2.500955-41.806068-0.954743-52.306192-10.271927-18.474733-16.392309 0.812503-43.761602 3.837391-48.809562l13.209833-13.246672 33.593029 33.634984c4.722549 4.732782 11.957309 4.300947 16.675764-0.425694l208.707999-208.956662-83.826007-83.93243-208.702882 208.965871c-4.723572 4.727665-4.296854 12.824048 0.425695 17.551713l18.713163 18.735676-14.936148 16.565248-3.027957 4.038981c-0.671288 2.079354-28.733357 43.654155 1.857297 70.923164 12.094432 10.773346 29.407715 16.202998 51.600112 16.202998 5.122661 0 10.507287-0.289595 16.152856-0.867762 34.2592-3.520166 36.911604-17.904753 91.247009-42.750577l0.431834-0.215917c1.045817-0.536211 104.995099-53.375545 143.072247 2.758828l16.69316-11.355607c-20.254259-29.847736-56.433177-40.680433-104.6175-31.338689z m-25.900851-188.826222c-3.837391 3.8466-3.571331 10.354815 0.609889 14.541152l4.540401 4.547563c4.181221 4.182244 10.685342 4.45649 14.526825 0.611936l27.137003-27.172818c3.845577-3.850694 3.574401-10.359931-0.606819-14.545246l-4.540401-4.54347c-4.176104-4.185314-10.681249-4.45649-14.521709-0.610913l-27.145189 27.171796z m11.203134 11.447703c2.723012 2.731199 7.266483 2.607379 9.772554 0.096191l17.698046-17.721582c2.507095-2.506072 2.625798-7.050566-0.100284-9.781764l-2.960419-2.964512c-2.727106-2.727106-7.267506-2.607379-9.773578-0.096191l-17.698045 17.721582c-2.506072 2.506072-2.625798 7.055682 0.09619 9.781764l2.965536 2.964512z m15.431426-114.633601l99.128497 99.2472c33.717872 5.673198 69.381045-3.001351 97.168869-26.029788L532.666651 297.458144c-23.000807 27.82364-31.66103 63.524675-25.998066 97.287573z m204.808187-105.811696c-44.788999-44.839141-115.959803-47.156925-163.489212-6.967678l170.446657 170.653364c40.148315-47.578527 37.834624-118.837335-6.957445-163.685686z" fill="#E04944" /></svg>