<svg width="340.274" height="340.274" viewBox="0 0 340.274 340.274" xmlns="http://www.w3.org/2000/svg" xmlns:xlink="http://www.w3.org/1999/xlink" id="Capa_1" overflow="hidden"><g><g><g><path d="M293.629 127.806 287.834 114.067C307.68 69.211 306.364 67.878 302.51 63.987L277.157 39.217 274.641 37.097 271.704 37.097C270.155 37.097 265.531 37.097 226.992 54.577L212.808 48.858C194.476 3.414 192.596 3.414 187.228 3.414L151.463 3.414C146.101 3.414 144.017 3.408 127.015 49.02L112.892 54.754C86.848 43.757 71.574 38.19 67.452 38.19L64.071 38.295 36.801 65.032C32.663 68.923 31.219 70.295 52.203 114.457L46.429 128.148C0 146.097 0 147.838 0 153.33L0 188.398C0 193.899 0 195.838 46.585 212.525L52.358 226.192C32.515 271.024 33.848 272.37 37.703 276.224L63.056 301.024 65.578 303.192 68.529 303.192C70.054 303.192 74.621 303.192 113.214 285.676L127.373 291.434C145.708 336.872 147.591 336.861 152.971 336.861L188.742 336.861C194.212 336.861 196.152 336.861 213.205 291.272L227.4 285.532C253.414 296.532 268.653 302.117 272.749 302.117L276.153 302.021 303.632 275.12C307.541 271.175 308.91 269.811 288.043 225.832L293.777 212.13C340.273 194.163 340.273 192.277 340.273 186.909L340.273 151.88C340.268 146.361 340.268 144.434 293.629 127.806ZM170.128 228.474C137.33 228.474 110.624 202.287 110.624 170.11 110.624 137.957 137.331 111.795 170.128 111.795 202.908 111.795 229.558 137.963 229.558 170.11 229.552 202.287 202.902 228.474 170.128 228.474Z" stroke="none" stroke-width="1" stroke-linecap="butt" fill="#FFFFFF" fill-opacity="1"/></g></g></g><g></g><g></g><g></g><g></g><g></g><g></g><g></g><g></g><g></g><g></g><g></g><g></g><g></g><g></g><g></g></svg>